<?xml version="1.0" standalone="no"?>
<!DOCTYPE svg PUBLIC "-//W3C//DTD SVG 20010904//EN"
 "http://www.w3.org/TR/2001/REC-SVG-20010904/DTD/svg10.dtd">
<svg version="1.0" xmlns="http://www.w3.org/2000/svg"
 width="512.000000pt" height="512.000000pt" viewBox="0 0 512.000000 512.000000"
 preserveAspectRatio="xMidYMid meet">

<g transform="translate(0.000000,512.000000) scale(0.100000,-0.100000)"
fill="#a3a3a3" stroke="none">
<path d="M3563 4066 c-23 -20 -33 -39 -42 -85 -12 -63 -51 -125 -98 -158 -72
-52 -137 -76 -468 -178 -343 -106 -460 -213 -500 -457 l-6 -38 -1058 0 c-1176
0 -1099 4 -1210 -68 -65 -43 -122 -113 -153 -189 l-23 -58 -3 -719 c-3 -782
-3 -785 54 -881 32 -56 93 -117 149 -149 100 -59 -41 -56 2355 -56 1927 0
2203 2 2254 15 143 37 254 148 291 291 22 87 22 1431 0 1518 -30 115 -105 205
-215 259 l-65 32 -1070 3 c-588 1 -1075 4 -1082 7 -24 9 18 97 72 151 67 67
135 98 404 183 123 39 261 89 306 111 152 75 231 170 261 311 23 110 -4 165
-83 176 -32 4 -45 0 -70 -21z m1232 -1135 c59 -26 101 -80 115 -144 7 -38 10
-258 8 -729 l-3 -675 -30 -49 c-21 -34 -44 -56 -75 -71 l-44 -23 -2205 0
-2205 0 -44 21 c-26 13 -54 38 -70 62 l-27 41 -3 705 c-2 483 0 718 8 743 14
50 56 97 105 119 38 18 127 19 2235 19 2102 0 2197 -1 2235 -19z"/>
<path d="M430 2710 c-18 -18 -20 -33 -20 -133 0 -147 3 -151 137 -155 157 -6
177 14 171 171 -4 134 -8 137 -155 137 -100 0 -115 -2 -133 -20z"/>
<path d="M932 2714 c-21 -14 -22 -22 -22 -132 0 -64 4 -122 8 -128 16 -24 55
-34 136 -34 85 0 134 11 148 33 4 7 8 65 8 129 0 148 0 148 -150 148 -79 0
-111 -4 -128 -16z"/>
<path d="M1429 2711 c-22 -17 -24 -28 -27 -119 -6 -162 11 -178 182 -171 122
6 126 11 126 156 0 152 -1 153 -149 153 -92 0 -112 -3 -132 -19z"/>
<path d="M1921 2704 c-18 -23 -21 -41 -21 -129 0 -147 3 -150 155 -150 152 0
155 3 155 150 0 88 -3 106 -21 129 -20 25 -23 26 -134 26 -111 0 -114 -1 -134
-26z"/>
<path d="M2422 2707 c-20 -21 -22 -34 -22 -134 0 -141 5 -146 126 -152 170 -7
188 10 182 169 -4 137 -7 140 -153 140 -104 0 -113 -2 -133 -23z"/>
<path d="M2920 2710 c-18 -18 -20 -33 -20 -132 0 -62 4 -118 8 -125 14 -22 63
-33 148 -33 81 0 120 10 136 34 4 6 8 64 8 128 0 149 1 148 -152 148 -95 0
-110 -2 -128 -20z"/>
<path d="M3419 2711 c-22 -17 -24 -29 -27 -116 -6 -159 13 -179 171 -173 134
4 137 8 137 155 0 152 -1 153 -149 153 -92 0 -112 -3 -132 -19z"/>
<path d="M4052 2707 c-20 -21 -22 -34 -22 -129 0 -89 3 -109 19 -129 l19 -24
250 0 c312 0 292 -10 292 152 0 164 20 153 -288 153 -247 0 -249 0 -270 -23z"/>
<path d="M432 2234 c-20 -14 -22 -23 -22 -127 0 -159 -2 -157 150 -157 132 0
144 5 156 65 3 19 5 70 3 114 -6 116 -12 121 -153 121 -85 0 -117 -4 -134 -16z"/>
<path d="M927 2232 c-14 -15 -17 -41 -17 -134 0 -150 -2 -148 152 -148 150 0
148 -2 148 152 0 150 2 148 -152 148 -99 0 -117 -3 -131 -18z"/>
<path d="M1424 2229 c-14 -16 -20 -40 -23 -100 -2 -44 0 -95 3 -114 12 -60 24
-65 156 -65 151 0 150 -1 150 152 0 147 -1 148 -153 148 -103 0 -116 -2 -133
-21z"/>
<path d="M1920 2228 c-18 -19 -20 -35 -20 -130 0 -147 1 -148 155 -148 154 0
155 1 155 150 0 149 -1 150 -155 150 -105 0 -116 -2 -135 -22z"/>
<path d="M2420 2230 c-18 -18 -20 -33 -20 -128 0 -153 -1 -152 150 -152 132 0
144 5 156 65 3 19 5 70 3 114 -6 116 -12 121 -156 121 -100 0 -115 -2 -133
-20z"/>
<path d="M2917 2232 c-14 -15 -17 -41 -17 -134 0 -150 -2 -148 152 -148 150 0
148 -2 148 152 0 150 2 148 -152 148 -99 0 -117 -3 -131 -18z"/>
<path d="M3414 2229 c-14 -16 -20 -40 -23 -100 -2 -44 0 -95 3 -114 12 -60 24
-65 156 -65 151 0 150 -1 150 150 0 151 1 150 -149 150 -107 0 -120 -2 -137
-21z"/>
<path d="M3947 2232 c-14 -15 -17 -41 -17 -134 0 -150 -2 -148 152 -148 150 0
148 -2 148 152 0 150 2 148 -152 148 -99 0 -117 -3 -131 -18z"/>
<path d="M4431 2224 c-36 -46 -27 -241 12 -266 7 -4 65 -8 129 -8 148 0 148 0
148 150 0 151 1 150 -150 150 -116 0 -119 -1 -139 -26z"/>
<path d="M430 1750 c-18 -18 -20 -33 -20 -133 0 -145 4 -150 126 -156 170 -7
188 10 182 169 -4 137 -7 140 -155 140 -100 0 -115 -2 -133 -20z"/>
<path d="M932 1754 c-21 -14 -22 -22 -22 -132 0 -64 4 -122 8 -128 16 -25 55
-34 142 -34 87 0 126 9 142 34 4 6 8 62 8 124 0 151 -1 152 -148 152 -81 0
-113 -4 -130 -16z"/>
<path d="M1429 1751 c-23 -18 -24 -25 -24 -135 0 -153 -2 -151 149 -151 156 0
156 0 156 152 0 152 -1 153 -149 153 -92 0 -112 -3 -132 -19z"/>
<path d="M1921 1744 c-18 -23 -21 -41 -21 -129 0 -86 3 -107 19 -126 l19 -24
554 -3 c304 -1 563 0 575 3 47 11 53 29 53 155 0 111 -1 120 -22 134 -20 14
-92 16 -589 16 l-568 0 -20 -26z"/>
<path d="M3419 1751 c-22 -17 -24 -28 -27 -119 -6 -162 11 -178 182 -171 122
6 126 11 126 156 0 152 -1 153 -149 153 -92 0 -112 -3 -132 -19z"/>
<path d="M3952 1754 c-21 -14 -22 -22 -22 -132 0 -64 4 -122 8 -128 16 -25 55
-34 142 -34 87 0 126 9 142 34 4 6 8 64 8 128 0 148 0 148 -150 148 -79 0
-111 -4 -128 -16z"/>
<path d="M4439 1751 c-22 -17 -24 -28 -27 -119 -6 -162 11 -178 182 -171 122
6 126 11 126 156 0 152 -1 153 -149 153 -92 0 -112 -3 -132 -19z"/>
</g>
</svg>
