<?xml version="1.0" standalone="no"?>
<!DOCTYPE svg PUBLIC "-//W3C//DTD SVG 20010904//EN"
 "http://www.w3.org/TR/2001/REC-SVG-20010904/DTD/svg10.dtd">
<svg version="1.0" xmlns="http://www.w3.org/2000/svg"
 width="256.000000pt" height="256.000000pt" viewBox="0 0 256.000000 256.000000"
 preserveAspectRatio="xMidYMid meet">

<g transform="translate(0.000000,256.000000) scale(0.100000,-0.100000)"
fill="#a3a3a3" stroke="none">
<path d="M450 2550 c-19 -4 -45 -20 -57 -35 -44 -50 -35 -66 122 -225 80 -81
145 -153 145 -161 0 -18 -211 -229 -229 -229 -8 0 -80 65 -161 145 -163 161
-178 168 -230 117 -22 -22 -30 -42 -35 -87 -16 -126 14 -257 86 -371 127 -201
393 -299 624 -230 l48 15 77 -74 76 -75 -452 -452 c-479 -479 -475 -475 -458
-551 10 -46 285 -322 332 -332 75 -16 71 -19 550 460 l454 453 451 -448 c439
-434 454 -447 504 -459 134 -32 263 67 263 202 0 89 5 84 -514 605 l-491 492
345 344 c331 330 347 344 390 350 104 15 99 9 185 199 42 94 80 178 82 184 5
13 -117 147 -148 164 -12 6 -68 -14 -200 -74 l-184 -83 -17 -79 -16 -78 -341
-341 -341 -341 -120 121 -120 121 15 49 c54 176 8 383 -115 526 -53 61 -158
130 -240 158 -72 25 -220 35 -280 20z m303 -122 c103 -49 176 -122 224 -223
46 -97 56 -213 28 -326 -9 -40 -14 -85 -11 -103 5 -22 42 -66 131 -156 l125
-125 -83 -83 c-72 -71 -87 -82 -109 -77 -13 4 -74 56 -134 116 -124 125 -136
130 -243 104 -49 -12 -96 -16 -159 -13 -76 3 -99 9 -165 41 -103 49 -176 121
-225 224 -34 73 -37 85 -40 188 l-4 110 134 -131 c73 -73 143 -137 155 -143
32 -16 95 -13 123 5 38 25 178 164 211 208 31 42 38 99 18 139 -6 12 -70 82
-143 155 l-131 134 110 -4 c103 -3 115 -6 188 -40z m1671 -7 l38 -38 -63 -139
c-34 -77 -63 -140 -64 -141 -1 -1 -32 -9 -70 -17 l-68 -14 -464 -464 -463
-463 -62 63 -63 62 463 463 464 464 14 68 c8 38 16 69 17 70 14 8 273 124 277
125 3 0 23 -17 44 -39z m-1277 -1274 c165 -165 178 -126 -162 -467 l-275 -275
-152 153 -153 152 276 275 c341 340 302 326 466 162z m1309 -869 c8 -15 14
-43 14 -63 0 -81 -57 -131 -138 -122 -44 5 -54 14 -518 478 -261 261 -477 482
-480 493 -5 14 15 39 77 102 l84 84 473 -472 c260 -260 480 -485 488 -500z
m-1959 220 c79 -79 143 -147 143 -153 0 -5 -21 -31 -47 -57 l-48 -48 -152 152
-153 153 47 47 c26 27 52 48 57 48 6 0 75 -64 153 -142z m-162 -168 l149 -150
-44 -45 c-24 -25 -53 -45 -64 -45 -28 0 -286 257 -286 284 0 18 75 106 90 106
3 0 73 -67 155 -150z"/>
</g>
</svg>
